<?xml version="1.0" encoding="UTF-8"?>
<svg width="20px" height="22px" viewBox="0 0 20 22" version="1.1" xmlns="http://www.w3.org/2000/svg" xmlns:xlink="http://www.w3.org/1999/xlink">
    <title>EnergyIcon</title>
    <g id="Symbols" stroke="none" stroke-width="1" fill="none" fill-rule="evenodd">
        <g id="NavigationBar" transform="translate(-221.000000, -11.000000)" fill="#193251">
            <g id="EnergyIcon" transform="translate(219.000000, 10.000000)">
                <path d="M2.23368987,13.3630538 L2.1658522,13.4538387 C1.73381733,14.1022338 2.19261158,15.0032382 3.00191115,15.0032382 L10.8679112,15.0032382 L10.0096333,21.8792035 C9.88577901,22.8700376 11.1308795,23.4105261 11.7701324,22.6434226 L21.7701324,10.6434226 L21.8379701,10.5526377 C22.270005,9.90424263 21.8112107,9.00323819 21.0019112,9.00323819 L13.1349112,9.00323819 L13.994189,2.12727293 C14.1180433,1.13643882 12.8729428,0.595950276 12.2336899,1.36305379 L2.23368987,13.3630538 Z M11.5859112,5.26423819 L11.0096333,9.87920346 L11.0017922,9.99750958 C10.9976831,10.5440045 11.440513,11.0032382 12.0019112,11.0032382 L18.8659112,11.0032382 L12.4169112,18.7412382 L12.994189,14.1272729 L13.0020301,14.0089668 C13.0061392,13.4624719 12.5633093,13.0032382 12.0019112,13.0032382 L5.13691115,13.0032382 L11.5859112,5.26423819 Z"></path>
            </g>
        </g>
    </g>
</svg>